# Blender v2.77 (sub 0) OBJ File: 'Boat.blend'
# www.blender.org
mtllib Boat.mtl
o Cube_Cube.001
v -11.529961 -1.461016 1.073162
v -12.969579 0.414060 1.593961
v -11.529961 -1.461016 -1.073162
v -12.969579 0.414060 -1.593961
v -5.777556 -1.461016 1.073162
v -4.337938 0.414060 1.593961
v -5.777556 -1.461016 -1.073162
v -4.337938 0.414060 -1.593961
v -8.653759 0.410484 -2.305985
v -8.653759 -1.461016 -1.352864
v -8.653759 0.410484 2.305985
v -8.653759 -1.461016 1.352864
v -12.992304 0.428755 -0.000000
v -11.523005 -1.473495 -0.000000
v -3.290265 0.414653 -0.000000
v -5.526280 -1.461016 -0.000000
v -8.653759 -1.461016 -0.000000
v -11.302098 -1.183953 0.946383
v -12.677253 0.459714 1.451416
v -11.302098 -1.183953 -0.946383
v -12.677253 0.459714 -1.451416
v -5.998800 -1.183953 0.946383
v -4.623645 0.459714 1.451416
v -5.998800 -1.183953 -0.946383
v -4.623645 0.459714 -1.451416
v -8.650450 0.448780 -2.099146
v -8.650450 -1.183953 -1.194345
v -8.650450 0.448780 2.099146
v -8.650450 -1.183953 1.194345
v -12.659096 0.477781 -0.000000
v -11.272391 -1.197325 -0.000000
v -3.660691 0.465960 -0.000000
v -5.779729 -1.183953 -0.000000
v -8.650450 -1.183953 -0.000000
vt 0.8644 0.6074
vt 0.7141 0.5701
vt 0.6887 0.4401
vt 0.7656 0.3766
vt 0.4922 0.5675
vt 0.2673 0.5525
vt 0.2928 0.4535
vt 0.4919 0.4293
vt 0.8644 0.6074
vt 0.7141 0.5701
vt 0.6887 0.4401
vt 0.7656 0.3766
vt 0.4922 0.5675
vt 0.2673 0.5525
vt 0.2928 0.4535
vt 0.4919 0.4293
vt 0.4905 0.3368
vt 0.2295 0.3669
vt 0.2295 0.3669
vt 0.1734 0.5867
vt 0.1734 0.5867
vt 0.6843 0.7425
vt 0.6500 0.6880
vt 0.7072 0.5831
vt 0.8396 0.6269
vt 0.4869 0.6886
vt 0.3313 0.6690
vt 0.2772 0.5652
vt 0.4918 0.5958
vt 0.6843 0.7425
vt 0.6500 0.6880
vt 0.7072 0.5831
vt 0.8396 0.6269
vt 0.4863 0.6894
vt 0.3313 0.6690
vt 0.2772 0.5652
vt 0.4918 0.5958
vt 0.2972 0.7237
vt 0.4867 0.7761
vt 0.2972 0.7237
vt 0.1906 0.6077
vt 0.1906 0.6077
vn -0.7920 -0.6105 -0.0042
vn 0.1251 -0.4045 -0.9059
vn 0.6545 -0.6856 0.3186
vn -0.1251 -0.4045 0.9059
vn 0.0000 -1.0000 0.0000
vn 0.0019 -1.0000 -0.0051
vn 0.1251 -0.4045 0.9059
vn -0.1251 -0.4045 -0.9059
vn 0.0019 -1.0000 0.0051
vn 0.6545 -0.6856 -0.3186
vn -0.7920 -0.6105 0.0042
vn 0.7698 0.6381 -0.0166
vn -0.1204 0.4346 0.8925
vn -0.6286 0.7141 -0.3080
vn 0.1204 0.4346 -0.8925
vn 0.0000 1.0000 -0.0000
vn -0.0022 1.0000 0.0063
vn -0.1204 0.4346 -0.8925
vn 0.1204 0.4346 0.8925
vn -0.0022 1.0000 -0.0063
vn -0.6286 0.7141 0.3080
vn 0.7698 0.6381 0.0166
vn -0.1472 0.9890 -0.0109
vn 0.0323 0.9774 -0.2087
vn 0.1273 0.9881 0.0863
vn -0.0322 0.9777 0.2077
vn -0.0322 0.9777 -0.2077
vn 0.0323 0.9774 0.2087
vn -0.1472 0.9890 0.0109
vn 0.1273 0.9881 -0.0863
usemtl None
s off
f 13/1/1 4/2/1 3/3/1 14/4/1
f 9/5/2 8/6/2 7/7/2 10/8/2
f 15/9/3 6/10/3 5/11/3 16/12/3
f 11/13/4 2/14/4 1/15/4 12/16/4
f 17/17/5 10/8/5 7/7/5 16/18/5
f 14/4/6 3/3/6 10/8/6 17/17/6
f 6/10/7 11/13/7 12/16/7 5/11/7
f 4/2/8 9/5/8 10/8/8 3/3/8
f 1/15/9 14/19/9 17/17/9 12/16/9
f 12/16/5 17/17/5 16/12/5 5/11/5
f 8/6/10 15/20/10 16/18/10 7/7/10
f 2/14/11 13/21/11 14/19/11 1/15/11
f 31/22/12 20/23/12 21/24/12 30/25/12
f 27/26/13 24/27/13 25/28/13 26/29/13
f 33/30/14 22/31/14 23/32/14 32/33/14
f 29/34/15 18/35/15 19/36/15 28/37/15
f 33/38/16 24/27/16 27/26/16 34/39/16
f 34/39/17 27/26/17 20/23/17 31/22/17
f 22/31/18 29/34/18 28/37/18 23/32/18
f 20/23/19 27/26/19 26/29/19 21/24/19
f 29/34/20 34/39/20 31/40/20 18/35/20
f 22/31/16 33/30/16 34/39/16 29/34/16
f 24/27/21 33/38/21 32/41/21 25/28/21
f 18/35/22 31/40/22 30/42/22 19/36/22
f 4/2/23 13/1/23 30/25/23 21/24/23
f 8/6/24 9/5/24 26/29/24 25/28/24
f 6/10/25 15/9/25 32/33/25 23/32/25
f 2/14/26 11/13/26 28/37/26 19/36/26
f 9/5/27 4/2/27 21/24/27 26/29/27
f 11/13/28 6/10/28 23/32/28 28/37/28
f 13/21/29 2/14/29 19/36/29 30/42/29
f 15/20/30 8/6/30 25/28/30 32/41/30
