# Blender v2.77 (sub 0) OBJ File: 'cone.blend'
# www.blender.org
mtllib cone_v2.mtl
o Cone_Cone.001
v 0.000000 -1.738042 -1.000000
v 0.781832 -1.738042 -0.623490
v 0.974928 -1.738042 0.222521
v 0.000000 1.738042 0.000000
v 0.433884 -1.738042 0.900969
v -0.433884 -1.738042 0.900969
v -0.974928 -1.738042 0.222521
v -0.781832 -1.738042 -0.623490
vt 0.7501 0.0341
vt 0.0769 0.7510
vt 0.5151 0.0064
vt 0.2317 0.0695
vt 0.0680 0.1610
vt 0.7501 0.0341
vt 0.5151 0.0064
vt 0.2317 0.0695
vt 0.0680 0.1610
vt 0.7501 0.0341
vt 0.5151 0.0064
vt 0.9363 0.7507
vt 0.9442 0.3057
vt 0.7501 0.0341
vt 0.5151 0.0064
vt 0.2303 0.0700
vt 0.0680 0.1610
vt 0.0769 0.7510
vn 0.4200 0.2509 -0.8721
vn 0.9437 0.2509 -0.2154
vn 0.7568 0.2509 0.6035
vn -0.0000 0.2509 0.9680
vn -0.7568 0.2509 0.6035
vn -0.9437 0.2509 -0.2154
vn -0.4200 0.2509 -0.8721
vn 0.0000 -1.0000 0.0000
usemtl None
s off
f 1/1/1 4/2/1 2/3/1
f 2/3/2 4/2/2 3/4/2
f 3/4/3 4/2/3 5/5/3
f 5/6/4 4/2/4 6/7/4
f 6/7/5 4/2/5 7/8/5
f 7/8/6 4/2/6 8/9/6
f 8/10/7 4/2/7 1/11/7
f 1/12/8 2/13/8 3/14/8 5/15/8 6/16/8 7/17/8 8/18/8
