# Blender v2.77 (sub 0) OBJ File: 'Fence.blend'
# www.blender.org
mtllib Fence.mtl
o Cube
v 9.890692 -2.733525 -0.448575
v 9.890692 -2.733525 0.448576
v 8.856853 -2.733525 0.448575
v 8.856853 -2.733525 -0.448576
v 9.997381 2.621494 -0.390198
v 9.997380 2.621494 0.390198
v 8.750163 2.621494 0.390198
v 8.750164 2.621494 -0.390198
v 0.545911 -1.693262 -0.180327
v 0.555321 -1.001403 -0.180327
v 0.545911 -1.693262 0.180327
v 0.555321 -1.001403 0.180327
v 8.831790 -1.713746 -0.180327
v 8.824094 -1.021866 -0.180327
v 8.831790 -1.713746 0.180327
v 8.824094 -1.021866 0.180327
v 0.601799 1.241009 -0.180327
v 0.601799 1.932932 -0.180327
v 0.601799 1.241009 0.180327
v 0.601799 1.932932 0.180327
v 8.766521 1.241009 -0.180327
v 8.766521 1.932932 -0.180327
v 8.766521 1.241009 0.180327
v 8.766521 1.932932 0.180327
v 0.516919 -2.733525 -0.448575
v 0.516919 -2.733525 0.448576
v -0.516920 -2.733525 0.448575
v -0.516919 -2.733525 -0.448576
v 0.623608 2.621494 -0.390198
v 0.623608 2.621494 0.390198
v -0.623608 2.621494 0.390198
v -0.623608 2.621494 -0.390198
vt 0.2936 0.6708
vt 0.1750 0.6708
vt 0.1903 0.1242
vt 0.2863 0.1251
vt 0.2863 0.1251
vt 0.2936 0.6708
vt 0.1750 0.6708
vt 0.1903 0.1242
vt 0.1750 0.6708
vt 0.1903 0.1242
vt 0.2863 0.1251
vt 0.2936 0.6708
vt 0.2863 0.1251
vt 0.2936 0.6708
vt 0.2863 0.1251
vt 0.2936 0.6708
vt 0.1750 0.6708
vt 0.1903 0.1242
vt 0.2936 0.6708
vt 0.2863 0.1251
vt 0.5671 0.3082
vt 0.5301 0.3082
vt 0.5301 0.2295
vt 0.5671 0.2295
vt 0.6919 0.4761
vt 0.3631 0.4761
vt 0.3633 0.5485
vt 0.6917 0.5485
vt 0.6040 0.3082
vt 0.5671 0.3082
vt 0.5671 0.2295
vt 0.6040 0.2295
vt 0.6917 0.5485
vt 0.3633 0.5485
vt 0.3631 0.4761
vt 0.6919 0.4761
vt 0.3633 0.5485
vt 0.3631 0.4761
vt 0.6919 0.4761
vt 0.6917 0.5485
vt 0.6919 0.4761
vt 0.3631 0.4761
vt 0.6040 0.3082
vt 0.5671 0.3082
vt 0.5671 0.2295
vt 0.6040 0.2295
vt 0.6919 0.4761
vt 0.3631 0.4761
vt 0.3633 0.5485
vt 0.6917 0.5485
vt 0.5671 0.3082
vt 0.5301 0.3082
vt 0.5301 0.2295
vt 0.5671 0.2295
vt 0.3631 0.4761
vt 0.6919 0.4761
vt 0.6917 0.5485
vt 0.3633 0.5485
vt 0.3631 0.4761
vt 0.3633 0.5485
vt 0.6917 0.5485
vt 0.6919 0.4761
vt 0.3633 0.5485
vt 0.6917 0.5485
vt 0.1750 0.6708
vt 0.2936 0.6708
vt 0.2863 0.1251
vt 0.1903 0.1242
vt 0.1750 0.6708
vt 0.1903 0.1242
vt 0.2863 0.1251
vt 0.2936 0.6708
vt 0.1903 0.1242
vt 0.2863 0.1251
vt 0.1750 0.6708
vt 0.1903 0.1242
vt 0.2936 0.6708
vt 0.1750 0.6708
vt 0.1903 0.1242
vt 0.2863 0.1251
vt 0.2936 0.6708
vt 0.2863 0.1251
vt 0.2936 0.6708
vt 0.1750 0.6708
vn 0.0000 -1.0000 0.0000
vn 0.0000 1.0000 -0.0000
vn 0.9998 -0.0199 0.0000
vn -0.0000 0.0109 0.9999
vn -0.9998 -0.0199 -0.0000
vn 0.0000 0.0109 -0.9999
vn 0.9999 -0.0136 0.0000
vn 0.0000 0.0000 -1.0000
vn -0.9999 -0.0111 -0.0000
vn -0.0000 0.0000 1.0000
vn 0.0025 1.0000 -0.0000
vn -0.0025 -1.0000 0.0000
vn 1.0000 0.0000 0.0000
vn -1.0000 -0.0000 0.0000
usemtl Material
s off
f 1/1/1 2/2/1 3/3/1 4/4/1
f 5/5/2 8/6/2 7/7/2 6/8/2
f 1/9/3 5/10/3 6/11/3 2/12/3
f 2/2/4 6/8/4 7/13/4 3/14/4
f 3/15/5 7/16/5 8/17/5 4/18/5
f 5/10/6 1/9/6 4/19/6 8/20/6
f 10/21/7 12/22/7 11/23/7 9/24/7
f 12/25/8 16/26/8 15/27/8 11/28/8
f 16/29/9 14/30/9 13/31/9 15/32/9
f 14/33/10 10/34/10 9/35/10 13/36/10
f 9/37/11 11/38/11 15/39/11 13/40/11
f 14/33/12 16/41/12 12/42/12 10/34/12
f 18/43/13 20/44/13 19/45/13 17/46/13
f 20/47/8 24/48/8 23/49/8 19/50/8
f 24/51/14 22/52/14 21/53/14 23/54/14
f 22/55/10 18/56/10 17/57/10 21/58/10
f 17/59/2 19/60/2 23/61/2 21/62/2
f 22/63/1 24/48/1 20/47/1 18/64/1
f 25/65/1 26/66/1 27/67/1 28/68/1
f 29/69/2 32/70/2 31/71/2 30/72/2
f 25/65/3 29/73/3 30/74/3 26/66/3
f 26/75/4 30/76/4 31/71/4 27/77/4
f 27/78/5 31/79/5 32/80/5 28/81/5
f 29/82/6 25/83/6 28/84/6 32/70/6
