# Blender v2.77 (sub 0) OBJ File: 'Log.blend'
# www.blender.org
mtllib Log_v2.mtl
o Cylinder_Cylinder.001
v -1.155094 1.592109 -0.831767
v 7.097250 1.592111 -0.831767
v -1.155093 0.613359 -0.515366
v 7.097251 0.613361 -0.515367
v -1.155093 0.611824 0.513254
v 7.097251 0.611826 0.513253
v -1.155093 1.589625 0.832575
v 7.097251 1.589627 0.832574
v -1.155094 2.195475 0.001306
v 7.097250 2.195477 0.001306
vt 0.6117 0.0000
vt 0.6117 1.0000
vt 0.4588 1.0000
vt 0.4588 0.0000
vt 0.3059 0.0000
vt 0.3059 1.0000
vt 0.1529 1.0000
vt 0.1529 0.0000
vt 0.0000 1.0000
vt 0.0000 0.0000
vt 0.1529 0.0000
vt 0.1529 1.0000
vt 1.0000 0.0385
vt 1.0000 0.1632
vt 0.8546 0.2017
vt 0.7647 0.1008
vt 0.8546 0.0000
vt 0.4588 0.0000
vt 0.4588 1.0000
vt 0.3059 1.0000
vt 0.3059 0.0000
vt 0.7647 0.0000
vt 0.7647 1.0000
vt 1.0000 0.2402
vt 1.0000 0.3648
vt 0.8546 0.4034
vt 0.7647 0.3025
vt 0.8546 0.2017
vn -0.0000 -0.3076 -0.9515
vn 0.0000 -1.0000 -0.0015
vn 0.0000 -0.3104 0.9506
vn 1.0000 0.0000 -0.0000
vn -0.0000 0.8081 0.5890
vn -0.0000 0.8099 -0.5866
vn -1.0000 -0.0000 0.0000
usemtl None
s off
f 1/1/1 2/2/1 4/3/1 3/4/1
f 3/5/2 4/6/2 6/7/2 5/8/2
f 5/9/3 6/10/3 8/11/3 7/12/3
f 4/13/4 2/14/4 10/15/4 8/16/4 6/17/4
f 7/18/5 8/19/5 10/20/5 9/21/5
f 9/22/6 10/23/6 2/2/6 1/1/6
f 1/24/7 3/25/7 5/26/7 7/27/7 9/28/7
