# Blender v2.77 (sub 0) OBJ File: 'Rock3.blend'
# www.blender.org
mtllib Rock3.mtl
o Cylinder
v -0.628625 -0.998873 -0.907326
v -0.604753 0.966099 -0.773144
v 1.039259 -0.809272 -0.625223
v 0.934716 0.793948 -0.772316
v 1.166010 -0.819189 0.519175
v 1.166751 0.829991 0.609540
v -0.304096 -1.038758 0.777039
v -0.270509 0.958812 0.782809
v -0.968577 -0.973342 0.713936
v -0.986945 0.953946 0.670829
v -1.033318 -1.010790 -0.194982
v -1.066221 0.951995 -0.309481
v -0.627655 -0.001034 -1.135339
v 1.283531 0.000531 -0.875820
v 1.491907 -0.011889 0.725407
v -0.245586 -0.035357 1.118943
v -1.266040 -0.023203 0.971072
v -1.337910 0.007165 -0.441030
v 0.313845 -0.904072 -0.836018
v 0.312476 0.880023 -0.847810
v 0.478081 -0.928973 0.578762
v 0.483887 0.894401 0.628779
v 0.509838 -0.023623 0.852324
v 0.285809 -0.000252 -1.077533
vt 0.6152 0.2970
vt 0.6749 0.0597
vt 0.7582 0.1021
vt 0.7582 0.3276
vt 0.5881 0.7797
vt 0.5708 1.0000
vt 0.4024 1.0000
vt 0.3952 0.7649
vt 0.1408 0.2523
vt 0.1824 0.0010
vt 0.2942 0.0000
vt 0.2504 0.2723
vt 0.3952 0.0171
vt 0.3952 0.2913
vt 0.3907 0.6541
vt 0.3945 0.7871
vt 0.2051 0.7574
vt 0.2128 0.6472
vt 0.7582 0.2835
vt 0.7642 0.0106
vt 0.8812 0.0000
vt 0.9254 0.2592
vt 0.3952 0.2476
vt 0.4920 0.0000
vt 0.5520 0.0089
vt 0.4860 0.2694
vt 0.0218 0.6559
vt 0.0569 0.5527
vt 0.1946 0.5486
vt 0.1923 0.6502
vt 0.9204 0.5437
vt 1.0000 0.2548
vt 1.0000 0.5330
vt 0.8111 0.5436
vt 0.2120 0.5486
vt 0.3091 0.5453
vt 0.1034 0.5012
vt 0.5781 0.5545
vt 0.4408 0.5437
vt 0.5678 0.5437
vt 0.6782 0.5405
vt 0.2288 0.8568
vt 0.3463 0.8568
vt 0.2051 0.7667
vt 0.1869 0.8567
vt 0.0784 0.8567
vt 0.0000 0.7911
vt 0.4286 0.5407
vt 0.0095 0.4559
vt 0.0000 0.2274
vt 0.3733 0.5644
vt 0.2057 0.5486
vt 0.0820 0.0036
vn 0.1758 0.2247 -0.9584
vn 0.9160 0.3765 -0.1382
vn 0.2668 0.2773 0.9230
vn -0.1388 0.3204 0.9371
vn 0.0874 0.9960 -0.0169
vn -0.9578 0.2801 0.0638
vn -0.6755 0.2802 -0.6821
vn 0.1463 -0.9888 -0.0301
vn -0.7574 -0.2554 -0.6010
vn -0.9546 -0.2923 0.0571
vn -0.1321 -0.3053 0.9430
vn 0.2976 -0.3057 0.9044
vn 0.9356 -0.3331 -0.1169
vn 0.2379 -0.2957 -0.9252
vn -0.0148 0.9999 0.0045
vn -0.0463 -0.9989 0.0060
vn 0.0796 -0.2379 -0.9680
vn 0.1271 -0.2921 0.9479
vn 0.1149 -0.9926 -0.0389
vn 0.1159 0.9927 -0.0339
vn 0.0920 0.2062 0.9742
vn 0.0054 0.3050 -0.9523
usemtl None
s off
f 24/1/1 20/2/1 4/3/1 14/4/1
f 14/5/2 4/6/2 6/7/2 15/8/2
f 23/9/3 22/10/3 8/11/3 16/12/3
f 16/12/4 8/11/4 10/13/4 17/14/4
f 20/15/5 2/16/5 8/17/5 22/18/5
f 17/19/6 10/20/6 12/21/6 18/22/6
f 18/23/7 12/24/7 2/25/7 13/26/7
f 19/27/8 3/28/8 5/29/8 21/30/8
f 11/31/9 18/22/9 13/32/9 1/33/9
f 9/34/10 17/19/10 18/22/10 11/31/10
f 7/35/11 16/12/11 17/14/11 9/36/11
f 21/37/12 23/9/12 16/12/12 7/35/12
f 3/38/13 14/5/13 15/8/13 5/39/13
f 19/40/14 24/1/14 14/4/14 3/41/14
f 10/42/15 8/17/15 2/16/15 12/43/15
f 7/44/16 9/45/16 11/46/16 1/47/16
f 1/48/17 13/26/17 24/1/17 19/40/17
f 5/49/18 15/50/18 23/9/18 21/37/18
f 1/47/19 19/27/19 21/30/19 7/44/19
f 4/51/20 20/15/20 22/18/20 6/52/20
f 15/50/21 6/53/21 22/10/21 23/9/21
f 13/26/22 2/25/22 20/2/22 24/1/22
