# Blender v2.77 (sub 0) OBJ File: 'Rock1.blend'
# www.blender.org
mtllib Rock1.mtl
o Cube
v 1.322639 -0.853104 -0.844345
v 1.242131 -0.793037 1.080275
v -1.259955 -0.991126 0.982100
v -1.341271 -0.975568 -1.009068
v 1.122196 0.906647 -0.878090
v 0.989003 0.986186 0.952802
v -1.382585 0.798066 0.819034
v -1.205197 0.839521 -0.824408
v 1.380542 -0.858054 0.098977
v 0.001018 -1.056799 -1.137255
v 1.471030 -0.049861 -0.837789
v 0.019551 -0.995443 1.047962
v 1.375414 0.041963 1.020579
v -1.299219 -1.016573 0.027146
v -1.393607 -0.130683 0.861710
v -1.422372 -0.190581 -0.995485
v 1.253739 0.839633 0.178145
v 0.171590 1.043624 -0.994186
v 0.164159 1.051409 0.952275
v -1.366112 0.867144 0.132149
v 0.155042 -0.001275 -1.332747
v -1.445528 -0.242794 -0.035638
v 0.119749 0.084481 1.164552
v 1.482581 -0.084694 0.108960
v -0.159894 1.088125 0.227131
v 0.004898 -1.066093 0.013245
vt 0.1890 0.2513
vt 0.3590 0.2426
vt 0.3545 0.4740
vt 0.1979 0.4863
vt 0.5640 0.7436
vt 0.5654 0.5241
vt 0.6780 0.5317
vt 0.6780 0.8132
vt 0.8411 0.1827
vt 0.9809 0.1933
vt 0.9786 0.3429
vt 0.8265 0.3729
vt 0.1711 0.7215
vt 0.3289 0.6872
vt 0.3289 0.9715
vt 0.1784 0.9998
vt 0.8595 0.7037
vt 0.6785 0.7391
vt 0.6797 0.5658
vt 0.8471 0.5302
vt 0.5359 0.2353
vt 0.6784 0.2815
vt 0.6701 0.5203
vt 0.5432 0.4729
vt 0.3848 0.2457
vt 0.3729 0.4702
vt 0.3906 0.0492
vt 0.5494 0.0276
vt 0.6784 0.0386
vt 0.9875 0.7114
vt 0.9762 0.5241
vt 0.9875 0.8843
vt 0.8451 0.8665
vt 0.6926 0.8631
vt 0.0002 0.7709
vt 0.0343 0.9998
vt 0.0014 0.5466
vt 0.1338 0.4993
vt 0.2973 0.5417
vt 0.6925 0.1894
vt 0.7127 0.3255
vt 0.6958 0.0139
vt 0.8174 0.0064
vt 0.9727 0.0182
vt 0.5359 0.9972
vt 0.6664 0.9618
vt 0.3649 0.9571
vt 0.3594 0.7842
vt 0.4066 0.5382
vt 0.0002 0.2579
vt 0.0203 0.4754
vt 0.0347 0.0351
vt 0.1892 0.0198
vt 0.3512 0.0390
vn -0.0218 -0.9986 0.0488
vn -0.1777 0.9777 0.1120
vn 0.9381 0.3088 0.1569
vn -0.1602 0.1362 0.9777
vn -0.9842 0.1511 -0.0926
vn -0.1535 -0.0912 -0.9839
vn -0.1964 0.2547 -0.9469
vn 0.2699 0.1856 -0.9448
vn 0.2910 -0.1435 -0.9459
vn -0.9895 -0.1443 0.0026
vn -0.9849 -0.1619 0.0605
vn -0.9989 0.0430 0.0212
vn -0.1309 -0.0003 0.9914
vn 0.0473 -0.0354 0.9983
vn 0.0761 0.1579 0.9845
vn 0.9802 -0.1390 0.1412
vn 0.9869 -0.1563 -0.0396
vn 0.9543 0.2939 -0.0532
vn 0.1367 0.9876 -0.0777
vn 0.1602 0.9868 0.0238
vn -0.1640 0.9840 -0.0697
vn -0.0505 -0.9985 -0.0219
vn 0.1524 -0.9883 -0.0112
vn 0.1522 -0.9854 0.0757
usemtl Material
s off
f 26/1/1 12/2/1 3/3/1 14/4/1
f 25/5/2 20/6/2 7/7/2 19/8/2
f 24/9/3 17/10/3 6/11/3 13/12/3
f 23/13/4 19/14/4 7/15/4 15/16/4
f 22/17/5 20/18/5 8/19/5 16/20/5
f 21/21/6 10/22/6 4/23/6 16/24/6
f 18/25/7 21/21/7 16/24/7 8/26/7
f 5/27/8 11/28/8 21/21/8 18/25/8
f 11/28/9 1/29/9 10/22/9 21/21/9
f 14/30/10 22/17/10 16/20/10 4/31/10
f 3/32/11 15/33/11 22/17/11 14/30/11
f 15/33/12 7/34/12 20/18/12 22/17/12
f 12/35/13 23/13/13 15/16/13 3/36/13
f 2/37/14 13/38/14 23/13/14 12/35/14
f 13/38/15 6/39/15 19/14/15 23/13/15
f 9/40/16 24/9/16 13/12/16 2/41/16
f 1/42/17 11/43/17 24/9/17 9/40/17
f 11/43/18 5/44/18 17/10/18 24/9/18
f 17/45/19 25/5/19 19/8/19 6/46/19
f 5/47/20 18/48/20 25/5/20 17/45/20
f 18/48/21 8/49/21 20/6/21 25/5/21
f 10/50/22 26/1/22 14/4/22 4/51/22
f 1/52/23 9/53/23 26/1/23 10/50/23
f 9/53/24 2/54/24 12/2/24 26/1/24
