# Blender v2.77 (sub 0) OBJ File: 'Barn1.blend'
# www.blender.org
mtllib Barn.mtl
o Cube.001
v -6.642341 1.321449 1.186857
v -4.117810 6.158829 1.186858
v -6.642341 1.321449 -18.327852
v -4.117810 6.158829 -18.327852
v -6.326658 0.917298 1.186857
v -3.799884 5.739001 1.186858
v -6.326658 0.917298 -18.327852
v -3.799884 5.739001 -18.327852
v 6.649934 1.321449 1.186857
v 4.125403 6.158829 1.186858
v 6.649934 1.321449 -18.327852
v 4.125403 6.158829 -18.327852
v 6.334251 0.917298 1.186857
v 3.807477 5.739001 1.186858
v 6.334251 0.917298 -18.327852
v 3.807477 5.739001 -18.327852
v 0.003797 8.585203 1.186858
v 0.003797 8.585203 -18.327852
v 0.003797 7.988712 1.186858
v 0.003797 7.988712 -18.327852
v 6.266318 -5.497701 -18.103233
v 6.266318 -5.497701 1.000000
v -6.267445 -5.497701 1.000000
v -6.267442 -5.497701 -18.103233
v 6.266321 1.006453 -18.103233
v 6.266315 1.006453 1.000001
v -6.267447 1.006453 1.000000
v -6.267444 1.006453 -18.103233
v 3.791655 5.738170 -18.103233
v 3.791651 5.738170 1.000001
v -3.792779 5.738170 1.000000
v -3.792777 5.738170 -18.103233
v -0.000563 7.988214 -18.103233
v -0.000563 7.988214 1.000000
v 6.266320 -1.689801 -18.103233
v 6.266315 -1.689801 1.000000
v -6.267447 -1.689801 1.000000
v -6.267444 -1.689801 -18.103233
v -2.283787 -5.497701 -18.103233
v -2.283791 1.006453 1.000000
v -2.283787 1.006453 -18.103233
v -2.283789 -5.497701 1.000000
v -2.283791 -1.689801 1.000000
v -2.283788 -1.689801 -18.103233
v -1.545528 5.738170 1.000000
v -1.545526 5.738170 -18.103233
v 2.402116 -1.689801 1.000000
v 2.402116 1.006453 1.000000
v 2.402116 -5.497701 1.000000
v 1.250770 5.738170 1.000000
v 6.266321 0.014937 -18.103233
v 6.266315 0.014937 1.000000
v -6.267447 0.014937 1.000000
v -6.267444 0.014937 -18.103233
v -2.283787 0.014937 -18.103233
v -2.283791 0.014937 1.000000
v 2.402116 0.014937 1.000000
v -2.283789 -5.497701 1.304706
v -2.283791 -1.689801 1.304706
v 2.402116 -1.689801 1.304707
v 2.402116 -5.497701 1.304706
vt 0.7853 0.1667
vt 0.7853 0.5534
vt 0.7725 0.5534
vt 0.7725 0.1667
vt 0.6965 0.5512
vt 0.6866 0.5512
vt 0.6889 0.1728
vt 0.6986 0.1728
vt 0.7853 0.5534
vt 0.7853 0.1667
vt 0.7976 0.1667
vt 0.7976 0.5534
vt 0.6689 0.1728
vt 0.6788 0.1728
vt 0.6767 0.5512
vt 0.6669 0.5512
vt 0.6588 0.1728
vt 0.6588 0.5512
vt 0.6482 0.5512
vt 0.6482 0.1728
vt 0.8622 0.1667
vt 0.8622 0.5534
vt 0.8526 0.5534
vt 0.8526 0.1667
vt 0.7183 0.5512
vt 0.7074 0.5512
vt 0.7097 0.1728
vt 0.7204 0.1728
vt 0.8428 0.1667
vt 0.8428 0.5534
vt 0.8329 0.5534
vt 0.8329 0.1667
vt 0.7313 0.1728
vt 0.7422 0.1728
vt 0.7400 0.5512
vt 0.7293 0.5512
vt 0.8099 0.1667
vt 0.8222 0.1667
vt 0.8222 0.5534
vt 0.8099 0.5534
vt 0.6887 0.1728
vt 0.6866 0.5512
vt 0.6769 0.5512
vt 0.6788 0.1728
vt 0.8099 0.5534
vt 0.7976 0.5534
vt 0.7976 0.1667
vt 0.8099 0.1667
vt 0.6568 0.5512
vt 0.6592 0.1728
vt 0.6689 0.1728
vt 0.6668 0.5512
vt 0.6396 0.1728
vt 0.6482 0.1728
vt 0.6482 0.5512
vt 0.6375 0.5512
vt 0.8329 0.5534
vt 0.8222 0.5534
vt 0.8222 0.1667
vt 0.8329 0.1667
vt 0.8634 0.5534
vt 0.8622 0.5534
vt 0.8622 0.1667
vt 0.8634 0.1667
vt 0.7095 0.1728
vt 0.7074 0.5512
vt 0.6967 0.5512
vt 0.6986 0.1728
vt 0.8526 0.5534
vt 0.8428 0.5534
vt 0.8428 0.1667
vt 0.8526 0.1667
vt 0.7183 0.5512
vt 0.7206 0.1728
vt 0.7313 0.1728
vt 0.7292 0.5512
vt 0.0960 0.0726
vt 0.0960 0.2617
vt 0.0549 0.2617
vt 0.0549 0.0726
vt 0.2254 0.3308
vt 0.1843 0.3308
vt 0.2099 0.2840
vt 0.2331 0.2840
vt 0.2482 0.2617
vt 0.2375 0.2617
vt 0.2375 0.0726
vt 0.2482 0.0726
vt 0.1432 0.3437
vt 0.1432 0.3339
vt 0.1843 0.3339
vt 0.1843 0.3437
vt 0.3714 0.2617
vt 0.3607 0.2617
vt 0.3607 0.0726
vt 0.3714 0.0726
vt 0.2254 0.3575
vt 0.2254 0.3952
vt 0.1843 0.3952
vt 0.1843 0.3575
vt 0.2882 0.2840
vt 0.2490 0.2617
vt 0.0948 0.3339
vt 0.1067 0.2870
vt 0.1356 0.2870
vt 0.3075 0.2617
vt 0.3075 0.0726
vt 0.1843 0.2617
vt 0.1843 0.0726
vt 0.1588 0.2870
vt 0.0804 0.2870
vt 0.1196 0.2647
vt 0.3921 0.2617
vt 0.3921 0.4509
vt 0.3529 0.4509
vt 0.3529 0.2617
vt 0.3137 0.4509
vt 0.3137 0.2617
vt 0.2254 0.3407
vt 0.1843 0.3407
vt 0.3137 0.3575
vt 0.3137 0.3952
vt 0.1843 0.0726
vt 0.1843 0.2617
vt 0.1444 0.2617
vt 0.1432 0.3983
vt 0.1432 0.3606
vt 0.1843 0.3606
vt 0.1843 0.3983
vt 0.4307 0.2617
vt 0.3897 0.2617
vt 0.3897 0.0726
vt 0.4307 0.0726
vt 0.3137 0.3407
vt 0.3137 0.3308
vt 0.0549 0.3437
vt 0.0549 0.3339
vt 0.0948 0.3437
vt 0.0549 0.3983
vt 0.0549 0.3606
vt 0.0948 0.3606
vt 0.0948 0.3983
vt 0.3075 0.2617
vt 0.2665 0.2617
vt 0.2665 0.0726
vt 0.3075 0.0726
vt 0.0756 0.7643
vt 0.2117 0.7647
vt 0.2124 0.7890
vt 0.0754 0.7890
vt 0.5170 0.9720
vt 0.3358 0.9720
vt 0.3358 0.7390
vt 0.5170 0.7390
vt 0.2117 0.7647
vt 0.0756 0.7643
vt 0.0754 0.7890
vt 0.2124 0.7890
vt 0.2117 0.7647
vt 0.2124 0.7890
vt 0.2124 0.7890
vt 0.0756 0.7643
vt 0.0754 0.7890
vn -0.8865 0.4627 -0.0000
vn -0.0000 0.0000 -1.0000
vn 0.8857 -0.4642 -0.0000
vn -0.0000 -0.0000 1.0000
vn -0.7881 -0.6156 -0.0000
vn -0.5073 0.8618 -0.0000
vn 0.5091 -0.8607 0.0000
vn 0.8865 0.4627 -0.0000
vn -0.8857 -0.4642 -0.0000
vn 0.7881 -0.6156 -0.0000
vn 0.5073 0.8618 -0.0000
vn -1.0000 0.0000 0.0000
vn -0.5091 -0.8607 -0.0000
vn 0.0000 -1.0000 0.0000
vn 1.0000 -0.0000 0.0000
vn -0.8861 0.4634 -0.0000
vn 0.8861 0.4634 0.0000
vn -0.5103 0.8600 -0.0000
vn 0.5103 0.8600 0.0000
vn 0.0000 1.0000 0.0000
usemtl Material
s off
f 2/1/1 4/2/1 3/3/1 1/4/1
f 4/5/2 8/6/2 7/7/2 3/8/2
f 8/9/3 6/10/3 5/11/3 7/12/3
f 6/13/4 2/14/4 1/15/4 5/16/4
f 1/17/5 3/18/5 7/19/5 5/20/5
f 4/21/6 2/22/6 17/23/6 18/24/6
f 2/25/4 6/26/4 19/27/4 17/28/4
f 6/29/7 8/30/7 20/31/7 19/32/7
f 8/33/2 4/34/2 18/35/2 20/36/2
f 10/37/8 9/38/8 11/39/8 12/40/8
f 12/41/2 11/42/2 15/43/2 16/44/2
f 16/45/9 15/46/9 13/47/9 14/48/9
f 14/49/4 13/50/4 9/51/4 10/52/4
f 9/53/10 13/54/10 15/55/10 11/56/10
f 12/57/11 18/58/11 17/59/11 10/60/11
f 19/61/12 17/62/12 18/63/12 20/64/12
f 10/65/4 17/66/4 19/67/4 14/68/4
f 14/69/13 19/70/13 20/71/13 16/72/13
f 16/73/2 20/74/2 18/75/2 12/76/2
f 39/77/14 42/78/14 23/79/14 24/80/14
f 41/81/2 28/82/2 32/83/2 46/84/2
f 51/85/15 25/86/15 26/87/15 52/88/15
f 56/89/4 40/90/4 27/91/4 53/92/4
f 53/93/12 27/94/12 28/95/12 54/96/12
f 44/97/2 39/98/2 24/99/2 38/100/2
f 29/101/2 46/84/2 32/83/2 33/102/2
f 40/90/4 48/103/4 50/104/4 45/105/4
f 28/95/16 27/94/16 31/106/16 32/107/16
f 26/87/17 25/86/17 29/108/17 30/109/17
f 31/110/4 45/105/4 50/104/4 30/111/4 34/112/4
f 32/113/18 31/114/18 34/115/18 33/116/18
f 30/117/19 29/118/19 33/116/19 34/115/19
f 55/119/2 44/97/2 38/100/2 54/120/2
f 27/91/4 40/90/4 45/105/4 31/110/4
f 35/121/2 21/122/2 39/98/2 44/97/2
f 21/123/14 22/124/14 49/125/14 42/78/14 39/77/14
f 42/126/4 43/127/4 37/128/4 23/129/4
f 23/130/12 37/131/12 38/132/12 24/133/12
f 51/134/2 35/121/2 44/97/2 55/119/2
f 25/135/2 41/81/2 46/84/2 29/101/2
f 52/136/4 26/137/4 48/103/4 57/138/4
f 22/139/4 36/140/4 47/141/4 49/142/4
f 50/104/4 48/103/4 26/137/4 30/111/4
f 57/138/4 48/103/4 40/90/4 56/89/4
f 47/141/4 57/138/4 56/89/4 43/127/4
f 36/140/4 52/136/4 57/138/4 47/141/4
f 25/135/2 51/134/2 55/119/2 41/81/2
f 41/81/2 55/119/2 54/120/2 28/82/2
f 37/131/12 53/93/12 54/96/12 38/132/12
f 43/127/4 56/89/4 53/92/4 37/128/4
f 21/143/15 35/144/15 36/145/15 22/146/15
f 35/144/15 51/85/15 52/88/15 36/145/15
f 49/147/15 47/148/15 60/149/15 61/150/15
f 58/151/4 61/152/4 60/153/4 59/154/4
f 43/155/12 42/156/12 58/157/12 59/158/12
f 42/156/14 49/159/14 61/160/14 58/157/14
f 47/161/20 43/155/20 59/162/20 60/163/20
